<svg id="Capa_1" enable-background="new 0 0 512 512" height="512" viewBox="0 0 512 512" width="512" xmlns="http://www.w3.org/2000/svg"><path d="m502.089 246.039c-8.423-10.949-21.161-17.742-34.947-18.638-13.795-.894-27.296 4.194-37.066 13.962l-56.214 56.209c-8.538-10.208-21.362-16.715-35.68-16.715h-59.72c-.922 0-1.779-.414-2.352-1.136l-6.287-7.922c-9.734-12.264-24.298-19.297-39.956-19.297h-43.8c-16.336 0-32.193 5.82-44.651 16.389l-54.128 45.922c-10.937-10.77-28.143-13.424-42.068-5.386l-27.725 16.005c-16.715 9.65-22.463 31.098-12.812 47.81l70.02 121.266c6.476 11.216 18.266 17.492 30.373 17.492 5.934 0 11.945-1.508 17.442-4.682l27.725-16.005c12.95-7.477 19.31-22.035 17.033-35.986h156.611c18.226 0 36.054-7.408 48.913-20.324l125.259-125.819c16.919-16.994 18.651-44.14 4.03-63.145zm-25.293 41.98-125.26 125.82c-7.269 7.301-17.346 11.488-27.648 11.488h-153.297-18.03l-45.634-79.033-3.41-5.906 57.311-48.622c7.042-5.974 16.005-9.264 25.24-9.264h43.8c6.448 0 12.446 2.896 16.454 7.946l6.287 7.922c6.299 7.936 15.722 12.486 25.853 12.486h59.72c9.102 0 16.506 7.403 16.506 16.504s-7.405 16.504-16.506 16.504h-113.428c-7.747 0-14.12 5.873-14.915 13.409-.055.523-.086 1.053-.086 1.591 0 8.284 6.717 15 15.002 15h59.599 53.829c25.023 0 45.483-19.863 46.462-44.647l66.647-66.642c3.719-3.718 8.658-5.58 13.905-5.237 5.248.341 9.904 2.823 13.111 6.991 5.485 7.131 4.835 17.315-1.512 23.69zm-341.554 177.314-27.724 16.005c-2.389 1.378-5.453.556-6.832-1.83l-70.02-121.266c-1.379-2.388-.557-5.451 1.831-6.83l27.724-16.005c.786-.453 1.645-.669 2.492-.669 1.73 0 3.413.896 4.339 2.499l70.02 121.266c1.378 2.388.557 5.451-1.83 6.83z"/><path d="m176.987 222h158.063c8.588 0 16.545-3.881 21.833-10.648s7.128-15.428 5.05-23.761l-11.804-47.339c-5.657-22.687-22.611-40.081-43.982-46.833 6.342-9.531 10.048-20.961 10.048-33.243-.001-33.181-26.996-60.176-60.177-60.176s-60.176 26.995-60.176 60.177c0 12.282 3.706 23.711 10.048 33.243-21.371 6.752-38.325 24.145-43.982 46.833l-11.804 47.339c-2.078 8.333-.237 16.993 5.05 23.761s13.245 10.647 21.833 10.647zm79.031-192c16.639 0 30.176 13.537 30.176 30.177 0 16.639-13.537 30.176-30.176 30.176s-30.176-13.537-30.176-30.176c0-16.64 13.537-30.177 30.176-30.177zm-65.002 117.51c3.987-15.99 18.281-27.157 34.759-27.157h60.485c16.479 0 30.772 11.167 34.759 27.157l11.094 44.49h-152.19z"/></svg>